<svg version="1.0" xmlns="http://www.w3.org/2000/svg" width="46.667" height="46.667" viewBox="0 0 256 256"><path d="M8 24v4l18.2.2 18.2.3 19.9 79.7L84.2 188h135.3l16.9-50.8c9.3-27.9 17.1-51.3 17.4-51.9.3-1-19-1.3-92.9-1.5l-93.3-.3-7.9-31.8L51.8 20H8v4zm219.2 112l-14.7 44-60.4-.2-60.5-.3-10.8-43C74.9 112.8 70 93.2 70 92.7c0-.4 38.7-.7 85.9-.7h85.9l-14.6 44zm-144 61.6c-4.5 2.3-10 9-10.8 13.1-1.7 9.3 1.4 17.1 8.8 22.5 2.8 1.9 4.6 2.3 10.8 2.3 8.4 0 11.7-1.6 16.8-8.2 2.4-3.2 2.7-4.5 2.7-11.3 0-6.8-.3-8.1-2.7-11.3-4.7-6.1-8.5-8.1-15.8-8.5-4.6-.2-7.5.2-9.8 1.4zm16.9 10.3c2.5 2.5 2.9 3.7 2.9 8.1 0 7.4-3.6 11-11 11-4.4 0-5.6-.4-8.1-2.9S81 220.4 81 216c0-4.4.4-5.6 2.9-8.1s3.7-2.9 8.1-2.9c4.4 0 5.6.4 8.1 2.9zm87.1-10.3c-4.5 2.3-10 9-10.8 13.1-1.7 9.3 1.4 17.1 8.8 22.5 2.8 1.9 4.6 2.3 10.8 2.3 8.4 0 11.7-1.6 16.8-8.2 2.4-3.2 2.7-4.5 2.7-11.3 0-6.8-.3-8.1-2.7-11.3-4.7-6.1-8.5-8.1-15.8-8.5-4.6-.2-7.5.2-9.8 1.4zm16.9 10.3c2.5 2.5 2.9 3.7 2.9 8.1 0 4.4-.4 5.6-2.9 8.1-4.3 4.2-11.9 4.2-16.2 0-2.5-2.5-2.9-3.7-2.9-8.1 0-4.4.4-5.6 2.9-8.1s3.7-2.9 8.1-2.9c4.4 0 5.6.4 8.1 2.9z" fill="#FFF"/></svg>